<svg width="38" height="40" viewBox="0 0 38 40" fill="none" xmlns="http://www.w3.org/2000/svg">
<rect width="38" height="40" fill="#1E1E1E"/>
<rect width="38" height="40" rx="4" fill="#7C3AED"/>
<path d="M20.4684 22.0114L20.3903 22.7926C20.3287 23.4176 20.2103 24.0402 20.0352 24.6605C19.8647 25.2855 19.6848 25.8513 19.4954 26.358C19.3107 26.8646 19.1616 27.2623 19.0479 27.5511H17.0877C17.1587 27.2718 17.2558 26.8812 17.3789 26.3793C17.502 25.8821 17.618 25.3234 17.7269 24.7031C17.8358 24.0829 17.9045 23.4508 17.9329 22.8068L17.9684 22.0114H20.4684ZM19.2042 16.5426C18.7354 16.5426 18.333 16.3769 17.9968 16.0455C17.6654 15.714 17.4996 15.3116 17.4996 14.8381C17.4996 14.3741 17.6654 13.9787 17.9968 13.652C18.333 13.3205 18.7354 13.1548 19.2042 13.1548C19.6587 13.1548 20.0565 13.3205 20.3974 13.652C20.7383 13.9787 20.9087 14.3741 20.9087 14.8381C20.9087 15.1553 20.8282 15.4441 20.6673 15.7045C20.511 15.9602 20.305 16.1638 20.0494 16.3153C19.7937 16.4669 19.512 16.5426 19.2042 16.5426Z" fill="white"/>
</svg>
